<svg xmlns="http://www.w3.org/2000/svg" style="display:none" aria-hidden="true">
  <defs>
    <symbol id="i-chip" viewBox="0 0 24 24" fill="none" stroke="currentColor" stroke-width="2" stroke-linecap="round" stroke-linejoin="round">
      <rect x="7" y="7" width="10" height="10" rx="2"/><path d="M12 2v2M12 20v2M2 12h2M20 12h2M5 5l1.4 1.4M17.6 17.6L19 19M19 5l-1.4 1.4M6.4 17.6L5 19"/>
    </symbol>
    <symbol id="i-arrow" viewBox="0 0 24 24" fill="none" stroke="currentColor" stroke-width="2" stroke-linecap="round" stroke-linejoin="round">
      <path d="M5 12h14M13 6l6 6-6 6"/>
    </symbol>
    <symbol id="i-moon" viewBox="0 0 24 24" fill="none" stroke="currentColor" stroke-width="2" stroke-linecap="round" stroke-linejoin="round">
      <path d="M21 12.8A9 9 0 1 1 11.2 3a7 7 0 0 0 9.8 9.8z"/>
    </symbol>
    <symbol id="i-sun" viewBox="0 0 24 24" fill="none" stroke="currentColor" stroke-width="2" stroke-linecap="round" stroke-linejoin="round">
      <circle cx="12" cy="12" r="4"/><path d="M12 2v2M12 20v2M4.9 4.9l1.4 1.4M17.7 17.7l1.4 1.4M2 12h2M20 12h2M4.9 19.1l1.4-1.4M17.7 6.3l1.4-1.4"/>
    </symbol>
    <symbol id="i-menu" viewBox="0 0 24 24" fill="none" stroke="currentColor" stroke-width="2" stroke-linecap="round">
      <path d="M4 6h16M4 12h16M4 18h16"/>
    </symbol>
    <symbol id="i-x" viewBox="0 0 24 24" fill="none" stroke="currentColor" stroke-width="2" stroke-linecap="round">
      <path d="M6 6l12 12M18 6L6 18"/>
    </symbol>
    <symbol id="i-check" viewBox="0 0 24 24" fill="none" stroke="currentColor" stroke-width="2.4" stroke-linecap="round" stroke-linejoin="round">
      <path d="M20 6L9 17l-5-5"/>
    </symbol>
    <symbol id="i-download" viewBox="0 0 24 24" fill="none" stroke="currentColor" stroke-width="2" stroke-linecap="round" stroke-linejoin="round">
      <path d="M21 15v4a2 2 0 0 1-2 2H5a2 2 0 0 1-2-2v-4M7 10l5 5 5-5M12 15V3"/>
    </symbol>
    <symbol id="i-chev" viewBox="0 0 24 24" fill="none" stroke="currentColor" stroke-width="2" stroke-linecap="round" stroke-linejoin="round">
      <path d="M6 9l6 6 6-6"/>
    </symbol>
    <symbol id="i-pin" viewBox="0 0 24 24" fill="none" stroke="currentColor" stroke-width="2" stroke-linecap="round" stroke-linejoin="round">
      <path d="M21 10c0 7-9 13-9 13S3 17 3 10a9 9 0 0 1 18 0z"/><circle cx="12" cy="10" r="3"/>
    </symbol>
    <symbol id="i-mail" viewBox="0 0 24 24" fill="none" stroke="currentColor" stroke-width="2" stroke-linecap="round" stroke-linejoin="round">
      <rect x="2" y="4" width="20" height="16" rx="2"/><path d="M22 6l-10 7L2 6"/>
    </symbol>
    <symbol id="i-phone" viewBox="0 0 24 24" fill="none" stroke="currentColor" stroke-width="2" stroke-linecap="round" stroke-linejoin="round">
      <path d="M22 16.9v3a2 2 0 0 1-2.2 2 19.8 19.8 0 0 1-8.6-3.1 19.5 19.5 0 0 1-6-6A19.8 19.8 0 0 1 2.1 4.2 2 2 0 0 1 4.1 2h3a2 2 0 0 1 2 1.7c.1 1 .4 2 .7 2.9a2 2 0 0 1-.5 2.1L8 10a16 16 0 0 0 6 6l1.3-1.3a2 2 0 0 1 2.1-.5c.9.3 1.9.6 2.9.7a2 2 0 0 1 1.7 2z"/>
    </symbol>
    <symbol id="i-clock" viewBox="0 0 24 24" fill="none" stroke="currentColor" stroke-width="2" stroke-linecap="round" stroke-linejoin="round">
      <circle cx="12" cy="12" r="10"/><path d="M12 6v6l4 2"/>
    </symbol>
    <symbol id="i-rocket" viewBox="0 0 24 24" fill="none" stroke="currentColor" stroke-width="2" stroke-linecap="round" stroke-linejoin="round">
      <path d="M4.5 16.5c-1.5 1.3-2 5-2 5s3.7-.5 5-2c.7-.8.7-2 0-2.8-.8-.7-2.2-.7-3 .8zM12 15l-3-3a22 22 0 0 1 2-3.9A12.9 12.9 0 0 1 22 2c0 2.7-.9 7.5-6 11a22 22 0 0 1-4 2z"/><path d="M9 12H4s.6-3.3 2-4.5c1.6-1.3 5-1.5 5-1.5M12 15v5s3.3-.6 4.5-2c1.3-1.6 1.5-5 1.5-5"/>
    </symbol>
    <symbol id="i-shield" viewBox="0 0 24 24" fill="none" stroke="currentColor" stroke-width="2" stroke-linecap="round" stroke-linejoin="round">
      <path d="M12 22s8-4 8-10V5l-8-3-8 3v7c0 6 8 10 8 10z"/><path d="M9 12l2 2 4-4"/>
    </symbol>
    <symbol id="i-layers" viewBox="0 0 24 24" fill="none" stroke="currentColor" stroke-width="2" stroke-linecap="round" stroke-linejoin="round">
      <path d="M12 2L2 7l10 5 10-5-10-5zM2 17l10 5 10-5M2 12l10 5 10-5"/>
    </symbol>
    <symbol id="i-server" viewBox="0 0 24 24" fill="none" stroke="currentColor" stroke-width="2" stroke-linecap="round" stroke-linejoin="round">
      <rect x="2" y="2" width="20" height="8" rx="2"/><rect x="2" y="14" width="20" height="8" rx="2"/><path d="M6 6h.01M6 18h.01"/>
    </symbol>
    <symbol id="i-db" viewBox="0 0 24 24" fill="none" stroke="currentColor" stroke-width="2" stroke-linecap="round" stroke-linejoin="round">
      <ellipse cx="12" cy="5" rx="9" ry="3"/><path d="M21 12c0 1.7-4 3-9 3s-9-1.3-9-3M3 5v14c0 1.7 4 3 9 3s9-1.3 9-3V5"/>
    </symbol>
    <symbol id="i-cpu" viewBox="0 0 24 24" fill="none" stroke="currentColor" stroke-width="2" stroke-linecap="round" stroke-linejoin="round">
      <rect x="4" y="4" width="16" height="16" rx="2"/><rect x="9" y="9" width="6" height="6"/><path d="M9 1v3M15 1v3M9 20v3M15 20v3M20 9h3M20 14h3M1 9h3M1 14h3"/>
    </symbol>
    <symbol id="i-chart" viewBox="0 0 24 24" fill="none" stroke="currentColor" stroke-width="2" stroke-linecap="round" stroke-linejoin="round">
      <path d="M3 3v18h18"/><path d="M7 15l4-5 3 3 5-7"/>
    </symbol>
    <symbol id="i-flag" viewBox="0 0 24 24" fill="none" stroke="currentColor" stroke-width="2" stroke-linecap="round" stroke-linejoin="round">
      <path d="M4 22V4a1 1 0 0 1 .3-.7A8 8 0 0 1 10 2a8 8 0 0 1 6 2.7V14a8 8 0 0 0-6-2.7 8 8 0 0 0-6 2.7"/><path d="M4 4v10"/>
    </symbol>
    <symbol id="i-star" viewBox="0 0 24 24" fill="none" stroke="currentColor" stroke-width="2" stroke-linecap="round" stroke-linejoin="round">
      <path d="M12 2l3.1 6.3 6.9 1-5 4.9 1.2 6.8L12 17.8 5.8 21l1.2-6.8-5-4.9 6.9-1L12 2z"/>
    </symbol>
    <symbol id="i-users" viewBox="0 0 24 24" fill="none" stroke="currentColor" stroke-width="2" stroke-linecap="round" stroke-linejoin="round">
      <path d="M17 21v-2a4 4 0 0 0-4-4H5a4 4 0 0 0-4 4v2"/><circle cx="9" cy="7" r="4"/><path d="M23 21v-2a4 4 0 0 0-3-3.9M16 3.1a4 4 0 0 1 0 7.8"/>
    </symbol>
    <symbol id="i-briefcase" viewBox="0 0 24 24" fill="none" stroke="currentColor" stroke-width="2" stroke-linecap="round" stroke-linejoin="round">
      <rect x="2" y="7" width="20" height="14" rx="2"/><path d="M16 21V5a2 2 0 0 0-2-2h-4a2 2 0 0 0-2 2v16"/>
    </symbol>
    <symbol id="i-linkedin" viewBox="0 0 24 24" fill="currentColor">
      <path d="M4.98 3.5C4.98 4.88 3.87 6 2.5 6S0 4.88 0 3.5 1.12 1 2.5 1s2.48 1.12 2.48 2.5zM.24 8.31h4.52V23H.24V8.31zM8.34 8.31h4.33v2h.06c.6-1.14 2.08-2.34 4.28-2.34 4.58 0 5.42 3.01 5.42 6.93V23h-4.52v-7.13c0-1.7-.03-3.89-2.37-3.89-2.37 0-2.73 1.85-2.73 3.76V23H8.34V8.31z"/>
    </symbol>
    <symbol id="i-twitter" viewBox="0 0 24 24" fill="currentColor">
      <path d="M18.9 1.15h3.68l-8.04 9.19L24 22.85h-7.4l-5.8-7.58-6.64 7.58H.47l8.6-9.83L0 1.15h7.6l5.24 6.93 6.06-6.93zm-1.29 19.5h2.04L6.49 3.24H4.3l13.31 17.41z"/>
    </symbol>
    <symbol id="i-facebook" viewBox="0 0 24 24" fill="currentColor">
      <path d="M24 12.07C24 5.4 18.63 0 12 0S0 5.4 0 12.07C0 18.1 4.39 23.09 10.13 24v-8.44H7.08v-3.49h3.05V9.41c0-3.02 1.79-4.7 4.53-4.7 1.31 0 2.68.24 2.68.24v2.97h-1.51c-1.49 0-1.96.93-1.96 1.89v2.26h3.33l-.53 3.49h-2.8V24C19.61 23.09 24 18.1 24 12.07z"/>
    </symbol>
    <symbol id="i-instagram" viewBox="0 0 24 24" fill="none" stroke="currentColor" stroke-width="2" stroke-linecap="round" stroke-linejoin="round">
      <rect x="2" y="2" width="20" height="20" rx="5"/><path d="M16 11.4a4 4 0 1 1-7.9 1.2 4 4 0 0 1 7.9-1.2z"/><path d="M17.5 6.5h.01"/>
    </symbol>
    <symbol id="i-send" viewBox="0 0 24 24" fill="none" stroke="currentColor" stroke-width="2" stroke-linecap="round" stroke-linejoin="round">
      <path d="M22 2L11 13M22 2l-7 20-4-9-9-4 20-7z"/>
    </symbol>
    <symbol id="i-map" viewBox="0 0 24 24" fill="none" stroke="currentColor" stroke-width="2" stroke-linecap="round" stroke-linejoin="round">
      <path d="M1 6v16l7-4 8 4 7-4V2l-7 4-8-4-7 4z"/><path d="M8 2v16M16 6v16"/>
    </symbol>
    <symbol id="i-gov" viewBox="0 0 24 24" fill="none" stroke="currentColor" stroke-width="2" stroke-linecap="round" stroke-linejoin="round">
      <path d="M3 21h18M5 21V10M9 21V10M15 21V10M19 21V10M2 10h20M12 3L2 10h20L12 3z"/>
    </symbol>
    <symbol id="i-target" viewBox="0 0 24 24" fill="none" stroke="currentColor" stroke-width="2" stroke-linecap="round" stroke-linejoin="round">
      <circle cx="12" cy="12" r="10"/><circle cx="12" cy="12" r="6"/><circle cx="12" cy="12" r="2"/>
    </symbol>
    <symbol id="i-play" viewBox="0 0 24 24" fill="none" stroke="currentColor" stroke-width="2" stroke-linecap="round" stroke-linejoin="round">
      <circle cx="12" cy="12" r="10"/><path d="M10 8l6 4-6 4V8z"/>
    </symbol>
    <symbol id="i-world" viewBox="0 0 24 24" fill="none" stroke="currentColor" stroke-width="2" stroke-linecap="round" stroke-linejoin="round">
      <circle cx="12" cy="12" r="10"/><path d="M2 12h20M12 2a15.3 15.3 0 0 1 4 10 15.3 15.3 0 0 1-4 10 15.3 15.3 0 0 1-4-10 15.3 15.3 0 0 1 4-10z"/>
    </symbol>
    <symbol id="i-bulb" viewBox="0 0 24 24" fill="none" stroke="currentColor" stroke-width="2" stroke-linecap="round" stroke-linejoin="round">
      <path d="M9 18h6M10 22h4M12 2a7 7 0 0 0-4 12.7c.6.5 1 1.4 1 2.3h6c0-.9.4-1.8 1-2.3A7 7 0 0 0 12 2z"/>
    </symbol>
    <symbol id="i-scale" viewBox="0 0 24 24" fill="none" stroke="currentColor" stroke-width="2" stroke-linecap="round" stroke-linejoin="round">
      <path d="M12 3v18M8 21h8M12 3L4 7m8-4l8 4M4 7l-2 6a3 3 0 0 0 6 0L4 7zm16 0l-2 6a3 3 0 0 0 6 0l-4-6z"/>
    </symbol>
    <symbol id="i-doc" viewBox="0 0 24 24" fill="none" stroke="currentColor" stroke-width="2" stroke-linecap="round" stroke-linejoin="round">
      <path d="M14 2H6a2 2 0 0 0-2 2v16a2 2 0 0 0 2 2h12a2 2 0 0 0 2-2V8l-6-6z"/><path d="M14 2v6h6M9 13h6M9 17h6"/>
    </symbol>
  </defs>
</svg>
